<svg xmlns="http://www.w3.org/2000/svg" viewBox="0 0 768 768">
  <g fill="#0060C0">
    <polygon points="513.00,378.00 420.75,218.23 368.10,218.23 349.49,186.00 308.39,186.00 289.96,217.92 250.75,217.92 164.51,68.55 205.61,44.82 261.60,141.79 430.94,141.79 478.63,224.39 514.98,224.39 532.78,255.23 513.28,289.01 538.83,333.27"/>
  </g>
  <g fill="none" stroke="#004488" stroke-width="3" stroke-linecap="butt" stroke-linejoin="miter">
    <polyline points="170.16,63.84 254.94,210.67 285.77,210.67 304.20,178.75 353.68,178.75 372.29,210.98 424.94,210.98 513.00,363.50 530.46,333.27 504.91,289.01 524.41,255.23 510.79,231.64 474.44,231.64 426.75,149.04 257.41,149.04 198.71,47.36"/>
  </g>
</svg>